<svg width="41" height="41" viewBox="0 0 41 41" fill="none" xmlns="http://www.w3.org/2000/svg">
<path d="M1.90564 20.1321H4.01256M20.8679 1.1698V3.27672M37.7233 20.1321H39.8302M7.38363 6.64779L8.85847 8.12263M34.3522 6.64779L32.8773 8.12263M16.022 30.6667H25.7138M14.5471 28.5597C12.7783 27.2331 11.4718 25.3836 10.8125 23.2731C10.1532 21.1627 10.1747 18.8983 10.8739 16.8007C11.5731 14.7032 12.9145 12.8788 14.7082 11.586C16.5019 10.2931 18.6569 9.59747 20.8679 9.59747C23.0789 9.59747 25.2339 10.2931 27.0276 11.586C28.8213 12.8788 30.1627 14.7032 30.8619 16.8007C31.5611 18.8983 31.5826 21.1627 30.9233 23.2731C30.2641 25.3836 28.9575 27.2331 27.1887 28.5597C26.3661 29.374 25.7467 30.3705 25.3807 31.4686C25.0146 32.5667 24.9122 33.7355 25.0817 34.8805C25.0817 35.9981 24.6378 37.0699 23.8475 37.8601C23.0573 38.6504 21.9855 39.0943 20.8679 39.0943C19.7503 39.0943 18.6785 38.6504 17.8883 37.8601C17.098 37.0699 16.6541 35.9981 16.6541 34.8805C16.8236 33.7355 16.7212 32.5667 16.3552 31.4686C15.9891 30.3705 15.3698 29.374 14.5471 28.5597Z" stroke="url(#paint0_linear_103_7153)" stroke-width="2" stroke-linecap="round" stroke-linejoin="round"/>
<defs>
<linearGradient id="paint0_linear_103_7153" x1="20.8679" y1="1.1698" x2="20.8679" y2="39.0943" gradientUnits="userSpaceOnUse">
<stop stop-color="#4E43FA"/>
<stop offset="1" stop-color="#348AEC"/>
</linearGradient>
</defs>
</svg>
