<svg width="45" height="31" viewBox="0 0 45 31" fill="none" xmlns="http://www.w3.org/2000/svg">
<path d="M29.6108 11.0236L40.4027 5.62885C40.764 5.44832 41.1654 5.36309 41.5689 5.38126C41.9724 5.39944 42.3645 5.5204 42.7081 5.73268C43.0517 5.94496 43.3353 6.24151 43.5321 6.5942C43.7289 6.94688 43.8323 7.34401 43.8325 7.74788V23.7805C43.8323 24.1843 43.7289 24.5815 43.5321 24.9342C43.3353 25.2868 43.0517 25.5834 42.7081 25.7957C42.3645 26.008 41.9724 26.1289 41.5689 26.1471C41.1654 26.1653 40.764 26.08 40.4027 25.8995L29.6108 20.5047V11.0236ZM1.16745 6.28305C1.16745 5.02577 1.6669 3.81999 2.55593 2.93096C3.44496 2.04193 4.65074 1.54248 5.90802 1.54248H24.8703C26.1276 1.54248 27.3333 2.04193 28.2224 2.93096C29.1114 3.81999 29.6108 5.02577 29.6108 6.28305V25.2453C29.6108 26.5026 29.1114 27.7084 28.2224 28.5974C27.3333 29.4864 26.1276 29.9859 24.8703 29.9859H5.90802C4.65074 29.9859 3.44496 29.4864 2.55593 28.5974C1.6669 27.7084 1.16745 26.5026 1.16745 25.2453V6.28305Z" stroke="url(#paint0_linear_103_7166)" stroke-width="2" stroke-linecap="round" stroke-linejoin="round"/>
<defs>
<linearGradient id="paint0_linear_103_7166" x1="22.5" y1="1.54248" x2="22.5" y2="29.9859" gradientUnits="userSpaceOnUse">
<stop stop-color="#4E43FA"/>
<stop offset="1" stop-color="#348AEC"/>
</linearGradient>
</defs>
</svg>
