<svg width="41" height="30" viewBox="0 0 41 30" fill="none" xmlns="http://www.w3.org/2000/svg">
  <defs>
    <linearGradient id="gradient" x1="16.5986" y1="-188.744" x2="54.4674" y2="-186.395" gradientUnits="userSpaceOnUse">
      <stop stop-color="#4E43FA"/>
      <stop offset="1" stop-color="#9F62CA"/>
    </linearGradient>
  </defs>
  <path d="M1.75 2.75C1.75 2.28587 1.94754 1.84075 2.29917 1.51256C2.65081 1.18437 3.12772 1 3.625 1H37.375C37.8723 1 38.3492 1.18437 38.7008 1.51256C39.0525 1.84075 39.25 2.28587 39.25 2.75V27.25C39.25 27.7141 39.0525 28.1592 38.7008 28.4874C38.3492 28.8156 37.8723 29 37.375 29H3.625C3.12772 29 2.65081 28.8156 2.29917 28.4874C1.94754 28.1592 1.75 27.7141 1.75 27.25V2.75Z" stroke="#464646" stroke-width="2" stroke-linejoin="round"/>
  <path d="M31.75 1V29M9.25 1V29M33.625 9.75H39.25M33.625 20.25H39.25M1.75 9.75H7.375M1.75 8V11.5M6.4375 1H12.0625M6.4375 29H12.0625M28.9375 1H34.5625M28.9375 29H34.5625M1.75 20.25H7.375M1.75 18.5V22M39.25 18.5V22M39.25 8V11.5" stroke="#464646" stroke-width="2" stroke-linecap="round" stroke-linejoin="round"/>
  <path d="M17.6875 10.625L25.1875 15L17.6875 19.375V10.625Z" stroke="#464646" stroke-width="2" stroke-linejoin="round"/>
</svg>
