<svg width="36" height="36" viewBox="0 0 36 36" fill="none" xmlns="http://www.w3.org/2000/svg">
<mask id="path-1-inside-1_103_7159" fill="white">
<path d="M11.3926 5.07217C11.6227 4.26513 12.3607 3.70941 13.1996 3.70941H22.4911C23.7725 3.70941 24.6786 4.96598 24.2733 6.18361L24.268 6.19777L22.038 12.5585H26.5741C28.2483 12.5585 29.0642 14.5831 27.9297 15.7636L27.9244 15.7707L27.505 16.199C26.6994 16.0833 25.8827 16.0672 25.0733 16.1512L26.6555 14.5371C26.6711 14.5218 26.6816 14.502 26.6856 14.4805C26.6873 14.4539 26.6831 14.4273 26.6732 14.4026C26.6629 14.3796 26.6478 14.3591 26.6289 14.3424C26.6218 14.3342 26.6036 14.3295 26.5741 14.3283H20.7868C20.6454 14.3281 20.5061 14.2941 20.3806 14.229C20.2551 14.1639 20.147 14.0697 20.0654 13.9543C19.9838 13.8389 19.931 13.7056 19.9115 13.5656C19.892 13.4256 19.9063 13.2829 19.9532 13.1496L22.5955 5.62081C22.6005 5.60431 22.6016 5.58687 22.5986 5.5699C22.5956 5.55293 22.5887 5.5369 22.5783 5.52311C22.568 5.50932 22.5545 5.49816 22.5391 5.49054C22.5236 5.48291 22.5066 5.47904 22.4893 5.47922H13.1996C13.1755 5.47846 13.1518 5.48593 13.1325 5.50041C13.1132 5.51488 13.0994 5.5355 13.0934 5.55886L9.11133 19.4944C9.09364 19.5651 9.14496 19.6359 9.21752 19.6359H12.5943C12.7285 19.636 12.861 19.6667 12.9816 19.7255C13.1023 19.7844 13.2079 19.8699 13.2906 19.9756C13.3733 20.0813 13.4309 20.2045 13.459 20.3357C13.487 20.467 13.4849 20.6029 13.4527 20.7332L11.1077 30.1132C11.1032 30.1306 11.1014 30.1485 11.1024 30.1663C11.1024 30.1734 11.1041 30.1799 11.1077 30.1858C11.1136 30.2011 11.1313 30.2188 11.1608 30.2389C11.184 30.2501 11.2093 30.2562 11.2351 30.2566L11.2528 30.2495C11.2685 30.2411 11.2828 30.2303 11.2953 30.2176L11.3006 30.2106L16.3976 25.0091C16.3302 25.82 16.3629 26.6361 16.495 27.439L12.5678 31.4477C11.2333 32.8317 8.92373 31.5539 9.39096 29.6849L11.4616 21.404H9.21752C8.92658 21.404 8.63961 21.3364 8.37922 21.2066C8.11882 21.0768 7.89211 20.8884 7.71694 20.6561C7.54177 20.4238 7.42292 20.154 7.36976 19.8679C7.31659 19.5819 7.33055 19.2874 7.41055 19.0077L11.3926 5.07217ZM34.0604 25.8321C34.0604 27.9443 33.2213 29.97 31.7277 31.4636C30.2341 32.9571 28.2084 33.7962 26.0962 33.7962C23.984 33.7962 21.9583 32.9571 20.4647 31.4636C18.9711 29.97 18.1321 27.9443 18.1321 25.8321C18.1321 23.7198 18.9711 21.6941 20.4647 20.2005C21.9583 18.707 23.984 17.8679 26.0962 17.8679C28.2084 17.8679 30.2341 18.707 31.7277 20.2005C33.2213 21.6941 34.0604 23.7198 34.0604 25.8321ZM30.0128 25.0586L24.7565 22.1385C24.6218 22.0635 24.4698 22.0251 24.3157 22.027C24.1616 22.0288 24.0106 22.0709 23.8778 22.1491C23.7449 22.2272 23.6348 22.3387 23.5583 22.4725C23.4817 22.6063 23.4415 22.7577 23.4415 22.9119V28.7522C23.4415 28.9064 23.4817 29.0578 23.5583 29.1916C23.6348 29.3254 23.7449 29.4369 23.8778 29.515C24.0106 29.5932 24.1616 29.6353 24.3157 29.6371C24.4698 29.639 24.6218 29.6006 24.7565 29.5256L30.0128 26.6055C30.1507 26.5288 30.2656 26.4167 30.3456 26.2807C30.4255 26.1447 30.4677 25.9898 30.4677 25.8321C30.4677 25.6743 30.4255 25.5194 30.3456 25.3834C30.2656 25.2474 30.1507 25.1353 30.0128 25.0586Z"/>
</mask>
<path d="M11.3926 5.07217C11.6227 4.26513 12.3607 3.70941 13.1996 3.70941H22.4911C23.7725 3.70941 24.6786 4.96598 24.2733 6.18361L24.268 6.19777L22.038 12.5585H26.5741C28.2483 12.5585 29.0642 14.5831 27.9297 15.7636L27.9244 15.7707L27.505 16.199C26.6994 16.0833 25.8827 16.0672 25.0733 16.1512L26.6555 14.5371C26.6711 14.5218 26.6816 14.502 26.6856 14.4805C26.6873 14.4539 26.6831 14.4273 26.6732 14.4026C26.6629 14.3796 26.6478 14.3591 26.6289 14.3424C26.6218 14.3342 26.6036 14.3295 26.5741 14.3283H20.7868C20.6454 14.3281 20.5061 14.2941 20.3806 14.229C20.2551 14.1639 20.147 14.0697 20.0654 13.9543C19.9838 13.8389 19.931 13.7056 19.9115 13.5656C19.892 13.4256 19.9063 13.2829 19.9532 13.1496L22.5955 5.62081C22.6005 5.60431 22.6016 5.58687 22.5986 5.5699C22.5956 5.55293 22.5887 5.5369 22.5783 5.52311C22.568 5.50932 22.5545 5.49816 22.5391 5.49054C22.5236 5.48291 22.5066 5.47904 22.4893 5.47922H13.1996C13.1755 5.47846 13.1518 5.48593 13.1325 5.50041C13.1132 5.51488 13.0994 5.5355 13.0934 5.55886L9.11133 19.4944C9.09364 19.5651 9.14496 19.6359 9.21752 19.6359H12.5943C12.7285 19.636 12.861 19.6667 12.9816 19.7255C13.1023 19.7844 13.2079 19.8699 13.2906 19.9756C13.3733 20.0813 13.4309 20.2045 13.459 20.3357C13.487 20.467 13.4849 20.6029 13.4527 20.7332L11.1077 30.1132C11.1032 30.1306 11.1014 30.1485 11.1024 30.1663C11.1024 30.1734 11.1041 30.1799 11.1077 30.1858C11.1136 30.2011 11.1313 30.2188 11.1608 30.2389C11.184 30.2501 11.2093 30.2562 11.2351 30.2566L11.2528 30.2495C11.2685 30.2411 11.2828 30.2303 11.2953 30.2176L11.3006 30.2106L16.3976 25.0091C16.3302 25.82 16.3629 26.6361 16.495 27.439L12.5678 31.4477C11.2333 32.8317 8.92373 31.5539 9.39096 29.6849L11.4616 21.404H9.21752C8.92658 21.404 8.63961 21.3364 8.37922 21.2066C8.11882 21.0768 7.89211 20.8884 7.71694 20.6561C7.54177 20.4238 7.42292 20.154 7.36976 19.8679C7.31659 19.5819 7.33055 19.2874 7.41055 19.0077L11.3926 5.07217ZM34.0604 25.8321C34.0604 27.9443 33.2213 29.97 31.7277 31.4636C30.2341 32.9571 28.2084 33.7962 26.0962 33.7962C23.984 33.7962 21.9583 32.9571 20.4647 31.4636C18.9711 29.97 18.1321 27.9443 18.1321 25.8321C18.1321 23.7198 18.9711 21.6941 20.4647 20.2005C21.9583 18.707 23.984 17.8679 26.0962 17.8679C28.2084 17.8679 30.2341 18.707 31.7277 20.2005C33.2213 21.6941 34.0604 23.7198 34.0604 25.8321ZM30.0128 25.0586L24.7565 22.1385C24.6218 22.0635 24.4698 22.0251 24.3157 22.027C24.1616 22.0288 24.0106 22.0709 23.8778 22.1491C23.7449 22.2272 23.6348 22.3387 23.5583 22.4725C23.4817 22.6063 23.4415 22.7577 23.4415 22.9119V28.7522C23.4415 28.9064 23.4817 29.0578 23.5583 29.1916C23.6348 29.3254 23.7449 29.4369 23.8778 29.515C24.0106 29.5932 24.1616 29.6353 24.3157 29.6371C24.4698 29.639 24.6218 29.6006 24.7565 29.5256L30.0128 26.6055C30.1507 26.5288 30.2656 26.4167 30.3456 26.2807C30.4255 26.1447 30.4677 25.9898 30.4677 25.8321C30.4677 25.6743 30.4255 25.5194 30.3456 25.3834C30.2656 25.2474 30.1507 25.1353 30.0128 25.0586Z" fill="url(#paint0_linear_103_7159)"/>
<path d="M11.3926 5.07217L12.3541 5.34692L12.3543 5.34633L11.3926 5.07217ZM24.2733 6.18361L25.2096 6.53476L25.2162 6.51721L25.2221 6.49942L24.2733 6.18361ZM24.268 6.19777L23.3317 5.84661L23.3279 5.85673L23.3243 5.86692L24.268 6.19777ZM22.038 12.5585L21.0943 12.2276L20.6278 13.5585H22.038V12.5585ZM27.9297 15.7636L27.2087 15.0707L27.1664 15.1147L27.1298 15.1635L27.9297 15.7636ZM27.9244 15.7707L28.6389 16.4704L28.6849 16.4234L28.7244 16.3707L27.9244 15.7707ZM27.505 16.199L27.3628 17.1888L27.8647 17.2609L28.2194 16.8987L27.505 16.199ZM25.0733 16.1512L24.3591 15.4512L22.4173 17.4321L25.1764 17.1458L25.0733 16.1512ZM26.6555 14.5371L25.9552 13.8232L25.9482 13.8301L25.9414 13.8371L26.6555 14.5371ZM26.6856 14.4805L27.6691 14.6611L27.6795 14.6046L27.6833 14.5473L26.6856 14.4805ZM26.6732 14.4026L27.6009 14.0294L27.5937 14.0114L27.5857 13.9936L26.6732 14.4026ZM26.6289 14.3424L25.8697 14.9932L25.9146 15.0457L25.9664 15.0915L26.6289 14.3424ZM26.5741 14.3283L26.614 13.3291L26.5941 13.3283H26.5741V14.3283ZM20.7868 14.3283L20.7855 15.3283H20.7868V14.3283ZM19.9532 13.1496L20.8965 13.4816L20.8968 13.4807L19.9532 13.1496ZM22.5955 5.62081L23.5391 5.95197L23.5462 5.93172L23.5524 5.91119L22.5955 5.62081ZM22.4893 5.47922V6.47928L22.5002 6.47916L22.4893 5.47922ZM13.1996 5.47922L13.168 6.47872L13.1838 6.47922H13.1996V5.47922ZM13.0934 5.55886L14.0549 5.83362L14.0585 5.82104L14.0618 5.80836L13.0934 5.55886ZM9.11133 19.4944L8.14982 19.2196L8.14524 19.2356L8.14119 19.2518L9.11133 19.4944ZM12.5943 19.6359L12.5951 18.6359H12.5943V19.6359ZM13.4527 20.7332L14.4228 20.9758L14.4235 20.9732L13.4527 20.7332ZM11.1077 30.1132L12.0764 30.3616L12.0778 30.3558L11.1077 30.1132ZM11.1024 30.1663H12.1024V30.1405L12.101 30.1147L11.1024 30.1663ZM11.1077 30.1858L12.041 29.8268L12.0099 29.7458L11.9652 29.6713L11.1077 30.1858ZM11.1608 30.2389L10.5985 31.0658L10.6589 31.1069L10.7246 31.1388L11.1608 30.2389ZM11.2351 30.2566L11.2189 31.2564L11.4199 31.2597L11.6065 31.1851L11.2351 30.2566ZM11.2528 30.2495L11.6242 31.178L11.6764 31.1571L11.726 31.1304L11.2528 30.2495ZM11.2953 30.2176L12.0085 30.9186L12.0553 30.871L12.0953 30.8176L11.2953 30.2176ZM11.3006 30.2106L10.5864 29.5107L10.5402 29.5578L10.5006 29.6106L11.3006 30.2106ZM16.3976 25.0091L17.3942 25.092L17.624 22.3289L15.6834 24.3092L16.3976 25.0091ZM16.495 27.439L17.2093 28.1389L17.564 27.7768L17.4817 27.2767L16.495 27.439ZM12.5678 31.4477L11.8534 30.7478L11.8479 30.7536L12.5678 31.4477ZM9.39096 29.6849L8.42083 29.4423L8.42082 29.4424L9.39096 29.6849ZM11.4616 21.404L12.4318 21.6466L12.7425 20.404H11.4616V21.404ZM9.21752 21.404L9.21746 22.404H9.21752V21.404ZM7.41055 19.0077L8.372 19.2826L8.37206 19.2824L7.41055 19.0077ZM26.0962 17.8679V16.8679V17.8679ZM30.0128 25.0586L30.4987 24.1846L30.4984 24.1845L30.0128 25.0586ZM24.7565 22.1385L24.2705 23.0124L24.2708 23.0126L24.7565 22.1385ZM23.4415 22.9119H24.4415V22.9118L23.4415 22.9119ZM23.4415 28.7522L24.4415 28.7523V28.7522H23.4415ZM24.7565 29.5256L24.2708 28.6515L24.2705 28.6517L24.7565 29.5256ZM30.0128 26.6055L30.4984 27.4796L30.4987 27.4795L30.0128 26.6055ZM12.3543 5.34633C12.4616 4.96983 12.8064 4.70941 13.1996 4.70941V2.70941C11.915 2.70941 10.7838 3.56044 10.4309 4.798L12.3543 5.34633ZM13.1996 4.70941H22.4911V2.70941H13.1996V4.70941ZM22.4911 4.70941C23.0893 4.70941 23.5145 5.2969 23.3245 5.86779L25.2221 6.49942C25.8427 4.63506 24.4556 2.70941 22.4911 2.70941V4.70941ZM23.337 5.83245L23.3317 5.84661L25.2043 6.54892L25.2096 6.53476L23.337 5.83245ZM23.3243 5.86692L21.0943 12.2276L22.9817 12.8893L25.2117 6.52861L23.3243 5.86692ZM22.038 13.5585H26.5741V11.5585H22.038V13.5585ZM26.5741 13.5585C27.3361 13.5585 27.7539 14.5034 27.2087 15.0707L28.6508 16.4565C30.3745 14.6629 29.1605 11.5585 26.5741 11.5585V13.5585ZM27.1298 15.1635L27.1245 15.1706L28.7244 16.3707L28.7297 16.3637L27.1298 15.1635ZM27.21 15.071L26.7905 15.4993L28.2194 16.8987L28.6389 16.4704L27.21 15.071ZM27.6472 15.2091C26.7603 15.0817 25.8612 15.0641 24.9701 15.1565L25.1764 17.1458C25.9042 17.0703 26.6385 17.0848 27.3628 17.1888L27.6472 15.2091ZM25.7874 16.8512L27.3696 15.2371L25.9414 13.8371L24.3591 15.4512L25.7874 16.8512ZM27.3557 15.251C27.5185 15.0914 27.6279 14.8853 27.6691 14.6611L25.702 14.2999C25.7353 14.1187 25.8237 13.9522 25.9552 13.8232L27.3557 15.251ZM27.6833 14.5473C27.6952 14.3707 27.667 14.1937 27.6009 14.0294L25.7454 14.7758C25.6992 14.6609 25.6795 14.5372 25.6878 14.4137L27.6833 14.5473ZM27.5857 13.9936C27.5172 13.8407 27.4168 13.7043 27.2914 13.5934L25.9664 15.0915C25.8787 15.0139 25.8086 14.9185 25.7607 14.8117L27.5857 13.9936ZM27.3882 13.6916C27.185 13.4545 26.9378 13.3846 26.8598 13.3644C26.7549 13.3374 26.6648 13.3311 26.614 13.3291L26.5341 15.3275C26.5128 15.3266 26.4466 15.3233 26.36 15.301C26.3149 15.2893 26.2455 15.2678 26.166 15.2271C26.0874 15.1869 25.9744 15.1154 25.8697 14.9932L27.3882 13.6916ZM26.5741 13.3283H20.7868V15.3283H26.5741V13.3283ZM20.7881 13.3283C20.8064 13.3283 20.8246 13.3327 20.8409 13.3412L19.9204 15.1168C20.1877 15.2554 20.4844 15.3279 20.7855 15.3283L20.7881 13.3283ZM20.8409 13.3412C20.8572 13.3497 20.8713 13.3619 20.8819 13.3769L19.249 14.5317C19.4228 14.7776 19.6531 14.9782 19.9204 15.1168L20.8409 13.3412ZM20.8819 13.3769C20.8925 13.3919 20.8994 13.4093 20.9019 13.4275L18.9211 13.7037C18.9627 14.0019 19.0751 14.2859 19.249 14.5317L20.8819 13.3769ZM20.9019 13.4275C20.9044 13.4457 20.9026 13.4642 20.8965 13.4816L19.0099 12.8176C18.9099 13.1016 18.8795 13.4055 18.9211 13.7037L20.9019 13.4275ZM20.8968 13.4807L23.5391 5.95197L21.652 5.28965L19.0096 12.8184L20.8968 13.4807ZM23.5524 5.91119C23.6031 5.74434 23.6137 5.56797 23.5834 5.39635L21.6138 5.74346C21.5895 5.60578 21.598 5.46428 21.6386 5.33043L23.5524 5.91119ZM23.5834 5.39635C23.5532 5.22473 23.4829 5.06259 23.3783 4.92311L21.7783 6.12311C21.6944 6.0112 21.638 5.88113 21.6138 5.74346L23.5834 5.39635ZM23.3783 4.92311C23.2737 4.78364 23.1377 4.6708 22.9814 4.5937L22.0967 6.38737C21.9713 6.32552 21.8622 6.235 21.7783 6.12311L23.3783 4.92311ZM22.9814 4.5937C22.8251 4.51659 22.6528 4.47739 22.4785 4.47928L22.5002 6.47916C22.3603 6.48068 22.2221 6.44923 22.0967 6.38737L22.9814 4.5937ZM22.4893 4.47922H13.1996V6.47922H22.4893V4.47922ZM13.2312 4.47972C12.98 4.47177 12.7336 4.54961 12.5325 4.70041L13.7325 6.30041C13.5701 6.42225 13.371 6.48515 13.168 6.47872L13.2312 4.47972ZM12.5325 4.70041C12.3315 4.8512 12.1877 5.06597 12.125 5.30936L14.0618 5.80836C14.0111 6.00503 13.895 6.17857 13.7325 6.30041L12.5325 4.70041ZM12.1319 5.28411L8.14982 19.2196L10.0728 19.7691L14.0549 5.83362L12.1319 5.28411ZM8.14119 19.2518C7.97884 19.9012 8.44126 20.6359 9.21752 20.6359V18.6359C9.84866 18.6359 10.2084 19.2291 10.0815 19.7369L8.14119 19.2518ZM9.21752 20.6359H12.5943V18.6359H9.21752V20.6359ZM12.5936 20.6359C12.5761 20.6359 12.5589 20.6319 12.5432 20.6243L13.4201 18.8268C13.1631 18.7014 12.881 18.6362 12.5951 18.6359L12.5936 20.6359ZM12.5432 20.6243C12.5275 20.6166 12.5137 20.6055 12.503 20.5918L14.0783 19.3595C13.9021 19.1343 13.677 18.9521 13.4201 18.8268L12.5432 20.6243ZM12.503 20.5918C12.4922 20.578 12.4847 20.562 12.4811 20.5449L14.4368 20.1266C14.377 19.847 14.2544 19.5847 14.0783 19.3595L12.503 20.5918ZM12.4811 20.5449C12.4774 20.5278 12.4777 20.5102 12.4819 20.4932L14.4235 20.9732C14.4921 20.6957 14.4967 20.4062 14.4368 20.1266L12.4811 20.5449ZM12.4825 20.4907L10.1375 29.8707L12.0778 30.3558L14.4228 20.9758L12.4825 20.4907ZM10.139 29.8649C10.1095 29.9801 10.0976 30.0991 10.1037 30.218L12.101 30.1147C12.1053 30.1978 12.097 30.281 12.0763 30.3616L10.139 29.8649ZM10.1024 30.1663C10.1024 30.3492 10.1506 30.5344 10.2502 30.7003L11.9652 29.6713C12.0577 29.8254 12.1024 29.9976 12.1024 30.1663H10.1024ZM10.1743 30.5448C10.3003 30.8723 10.5574 31.0379 10.5985 31.0658L11.7231 29.412C11.7403 29.4237 11.7827 29.4536 11.8325 29.5035C11.8758 29.5468 11.9745 29.6538 12.041 29.8268L10.1743 30.5448ZM10.7246 31.1388C10.8789 31.2135 11.0476 31.2537 11.2189 31.2564L11.2513 29.2567C11.3711 29.2586 11.4891 29.2867 11.5969 29.339L10.7246 31.1388ZM11.6065 31.1851L11.6242 31.178L10.8814 29.321L10.8637 29.3281L11.6065 31.1851ZM11.726 31.1304C11.8303 31.0744 11.9255 31.003 12.0085 30.9186L10.5821 29.5167C10.6401 29.4576 10.7067 29.4077 10.7796 29.3686L11.726 31.1304ZM12.0953 30.8176L12.1006 30.8106L10.5006 29.6106L10.4953 29.6176L12.0953 30.8176ZM12.0148 30.9105L17.1119 25.709L15.6834 24.3092L10.5864 29.5107L12.0148 30.9105ZM15.4011 24.9262C15.3269 25.819 15.3628 26.7174 15.5082 27.6014L17.4817 27.2767C17.363 26.5548 17.3336 25.821 17.3942 25.092L15.4011 24.9262ZM15.7807 26.7392L11.8535 30.7478L13.2821 32.1475L17.2093 28.1389L15.7807 26.7392ZM11.8479 30.7536C11.2241 31.4006 10.1422 30.803 10.3611 29.9275L8.42082 29.4424C7.70525 32.3047 11.2426 34.2627 13.2877 32.1418L11.8479 30.7536ZM10.3611 29.9275L12.4318 21.6466L10.4915 21.1614L8.42083 29.4423L10.3611 29.9275ZM11.4616 20.404H9.21752V22.404H11.4616V20.404ZM9.21759 20.404C9.08144 20.404 8.94715 20.3724 8.8253 20.3116L7.93313 22.1016C8.33207 22.3004 8.77172 22.404 9.21746 22.404L9.21759 20.404ZM8.8253 20.3116C8.70345 20.2509 8.59736 20.1627 8.51538 20.054L6.9185 21.2581C7.18687 21.614 7.5342 21.9028 7.93313 22.1016L8.8253 20.3116ZM8.51538 20.054C8.43341 19.9453 8.3778 19.819 8.35292 19.6852L6.38659 20.0507C6.46805 20.4889 6.65013 20.9022 6.9185 21.2581L8.51538 20.054ZM8.35292 19.6852C8.32803 19.5513 8.33457 19.4135 8.372 19.2826L6.44909 18.7327C6.32653 19.1613 6.30514 19.6124 6.38659 20.0507L8.35292 19.6852ZM8.37206 19.2824L12.3541 5.34692L10.4311 4.79741L6.44903 18.7329L8.37206 19.2824ZM33.0604 25.8321C33.0604 27.6791 32.3266 29.4504 31.0206 30.7564L32.4348 32.1707C34.1159 30.4896 35.0604 28.2095 35.0604 25.8321H33.0604ZM31.0206 30.7564C29.7146 32.0625 27.9432 32.7962 26.0962 32.7962V34.7962C28.4737 34.7962 30.7537 33.8518 32.4348 32.1707L31.0206 30.7564ZM26.0962 32.7962C24.2492 32.7962 22.4778 32.0625 21.1718 30.7564L19.7576 32.1707C21.4387 33.8518 23.7188 34.7962 26.0962 34.7962V32.7962ZM21.1718 30.7564C19.8658 29.4504 19.1321 27.6791 19.1321 25.8321H17.1321C17.1321 28.2095 18.0765 30.4896 19.7576 32.1707L21.1718 30.7564ZM19.1321 25.8321C19.1321 23.985 19.8658 22.2137 21.1718 20.9077L19.7576 19.4934C18.0765 21.1745 17.1321 23.4546 17.1321 25.8321H19.1321ZM21.1718 20.9077C22.4778 19.6016 24.2492 18.8679 26.0962 18.8679V16.8679C23.7188 16.8679 21.4387 17.8123 19.7576 19.4934L21.1718 20.9077ZM26.0962 18.8679C27.9432 18.8679 29.7146 19.6016 31.0206 20.9077L32.4348 19.4934C30.7537 17.8123 28.4737 16.8679 26.0962 16.8679V18.8679ZM31.0206 20.9077C32.3266 22.2137 33.0604 23.985 33.0604 25.8321H35.0604C35.0604 23.4546 34.1159 21.1745 32.4348 19.4934L31.0206 20.9077ZM30.4984 24.1845L25.2421 21.2643L24.2708 23.0126L29.5272 25.9328L30.4984 24.1845ZM25.2425 21.2645C24.9555 21.1049 24.6319 21.0231 24.3036 21.0271L24.3278 23.0269C24.3077 23.0272 24.288 23.0222 24.2705 23.0124L25.2425 21.2645ZM24.3036 21.0271C23.9753 21.031 23.6538 21.1207 23.3708 21.2871L24.3848 23.011C24.3675 23.0212 24.3478 23.0267 24.3278 23.0269L24.3036 21.0271ZM23.3708 21.2871C23.0878 21.4535 22.8532 21.691 22.6902 21.976L24.4263 22.969C24.4164 22.9864 24.402 23.0009 24.3848 23.011L23.3708 21.2871ZM22.6902 21.976C22.5272 22.261 22.4415 22.5836 22.4415 22.9119L24.4415 22.9118C24.4415 22.9319 24.4363 22.9516 24.4263 22.969L22.6902 21.976ZM22.4415 22.9119V28.7522H24.4415V22.9119H22.4415ZM22.4415 28.7522C22.4415 29.0805 22.5272 29.4031 22.6902 29.6881L24.4263 28.6951C24.4363 28.7125 24.4415 28.7322 24.4415 28.7523L22.4415 28.7522ZM22.6902 29.6881C22.8532 29.9731 23.0878 30.2106 23.3708 30.377L24.3848 28.6531C24.402 28.6632 24.4164 28.6777 24.4263 28.6951L22.6902 29.6881ZM23.3708 30.377C23.6538 30.5434 23.9754 30.6331 24.3036 30.637L24.3278 28.6372C24.3478 28.6374 24.3675 28.6429 24.3848 28.6531L23.3708 30.377ZM24.3036 30.637C24.6319 30.641 24.9555 30.5592 25.2425 30.3996L24.2705 28.6517C24.288 28.6419 24.3077 28.6369 24.3278 28.6372L24.3036 30.637ZM25.2421 30.3998L30.4984 27.4796L29.5272 25.7313L24.2708 28.6515L25.2421 30.3998ZM30.4987 27.4795C30.7924 27.3162 31.0371 27.0773 31.2075 26.7877L29.4836 25.7737C29.494 25.756 29.509 25.7414 29.5269 25.7315L30.4987 27.4795ZM31.2075 26.7877C31.3779 26.498 31.4677 26.1681 31.4677 25.8321H29.4677C29.4677 25.8115 29.4732 25.7914 29.4836 25.7737L31.2075 26.7877ZM31.4677 25.8321C31.4677 25.496 31.3779 25.1661 31.2075 24.8764L29.4836 25.8904C29.4732 25.8727 29.4677 25.8526 29.4677 25.8321H31.4677ZM31.2075 24.8764C31.0371 24.5868 30.7924 24.3479 30.4987 24.1846L29.5269 25.9326C29.509 25.9227 29.494 25.9081 29.4836 25.8904L31.2075 24.8764Z" fill="url(#paint1_linear_103_7159)" mask="url(#path-1-inside-1_103_7159)"/>
<defs>
<linearGradient id="paint0_linear_103_7159" x1="20.6992" y1="3.70941" x2="20.6992" y2="33.7962" gradientUnits="userSpaceOnUse">
<stop stop-color="#4E43FA"/>
<stop offset="1" stop-color="#348AEC"/>
</linearGradient>
<linearGradient id="paint1_linear_103_7159" x1="20.6992" y1="3.70941" x2="20.6992" y2="33.7962" gradientUnits="userSpaceOnUse">
<stop stop-color="#4E43FA"/>
<stop offset="1" stop-color="#348AEC"/>
</linearGradient>
</defs>
</svg>
