<svg width="25" height="31" viewBox="0 0 25 31" fill="none" xmlns="http://www.w3.org/2000/svg">
<path d="M16.9116 27.1666L23.6668 29.8822V29.3434M16.9116 27.1666L24.1668 29.5444L23.6668 29.3434M16.9116 27.1666H8.08871H16.9116ZM23.6668 29.3434V21.4426V21.4416C23.6676 21.0389 23.5731 20.6575 23.3792 20.291C23.1875 19.9286 22.9237 19.6404 22.5827 19.4197L22.577 19.416L22.577 19.4159L19.5145 17.3743L19.2918 17.2258L19.2918 16.9581C19.2928 13.4423 18.6892 10.38 17.4963 7.75913C16.3548 5.25111 14.6912 3.16762 12.5002 1.50314C10.3102 3.16761 8.64695 5.25109 7.50545 7.75913C6.31258 10.3801 5.7085 13.4424 5.7085 16.9583V17.2258L5.48585 17.3743L2.42335 19.4159L2.41809 19.4194L2.41807 19.4194C2.07795 19.64 1.81439 19.9283 1.62257 20.291C1.42856 20.6578 1.3335 21.0395 1.3335 21.4426V29.3434L7.90221 26.7027L7.99196 26.6666H8.08871H16.9116H17.0084L17.0981 26.7027L23.6668 29.3434ZM3.25016 25.7812V26.5232L3.93788 26.2446L6.81809 25.0779L7.25767 24.8999L7.10306 24.4515C6.86313 23.7557 6.64136 23.0477 6.43777 22.3275C6.23648 21.6153 6.07621 20.9039 5.9568 20.1931L5.82748 19.4234L5.18231 19.8627L3.46877 21.0293L3.25016 21.1782V21.4426V25.7812ZM9.12761 24.4553L9.26034 24.7499H9.5835H15.4168H15.7401L15.8728 24.4551C16.3306 23.4378 16.6928 22.2135 16.9652 20.7899C17.2387 19.3611 17.3752 17.9014 17.3752 16.4114C17.3752 13.9484 16.9644 11.6106 16.1405 9.40144C15.3184 7.19714 14.2217 5.4612 12.8325 4.22531L12.5003 3.92978L12.168 4.22517C10.7786 5.46017 9.6819 7.19624 8.85979 9.40151C8.03589 11.6115 7.62516 13.9493 7.62516 16.4114C7.62516 17.9005 7.76168 19.3601 8.0351 20.7899C8.30752 22.2144 8.66973 23.4388 9.12761 24.4553ZM12.5026 16.4583H12.5002C11.8316 16.4583 11.2721 16.2262 10.7946 15.7487C10.3169 15.2711 10.0843 14.7109 10.0835 14.041C10.0827 13.3721 10.3149 12.8132 10.7936 12.3369C11.2739 11.8591 11.8344 11.6265 12.5014 11.6249C13.1664 11.6233 13.7262 11.855 14.2072 12.336C14.6882 12.817 14.9193 13.3761 14.9168 14.0398C14.9144 14.7064 14.682 15.2682 14.2051 15.7508C13.7316 16.2299 13.1737 16.4615 12.5026 16.4583ZM21.0624 26.2446L21.7502 26.5232V25.7812V21.4426V21.1782L21.5316 21.0293L19.818 19.8627L19.1719 19.4228L19.0434 20.1938C18.925 20.9043 18.7653 21.6155 18.564 22.3275C18.3605 23.0475 18.1383 23.7553 17.8975 24.4509L17.7421 24.8997L18.1822 25.0779L21.0624 26.2446Z" fill="url(#paint0_linear_8_386)" stroke="url(#paint1_linear_8_386)"/>
<defs>
<linearGradient id="paint0_linear_8_386" x1="12.5002" y1="0.880127" x2="12.5002" y2="30.0833" gradientUnits="userSpaceOnUse">
<stop stop-color="#4E43FA"/>
<stop offset="1" stop-color="#348AEC"/>
</linearGradient>
<linearGradient id="paint1_linear_8_386" x1="12.5002" y1="0.880127" x2="12.5002" y2="30.0833" gradientUnits="userSpaceOnUse">
<stop stop-color="#4E43FA"/>
<stop offset="1" stop-color="#348AEC"/>
</linearGradient>
</defs>
</svg>
