<svg width="37" height="26" viewBox="0 0 37 26" fill="none" xmlns="http://www.w3.org/2000/svg">
<path d="M14.6667 18.2716L24.1817 12.7901L14.6667 7.30864V18.2716ZM35.86 3.96494C36.0983 4.8237 36.2633 5.97481 36.3733 7.43654C36.5017 8.89827 36.5567 10.159 36.5567 11.2553L36.6667 12.7901C36.6667 16.7916 36.3733 19.7333 35.86 21.6153C35.4017 23.2598 34.3383 24.3195 32.6883 24.7763C31.8267 25.0138 30.25 25.1783 27.83 25.2879C25.4467 25.4158 23.265 25.4706 21.2483 25.4706L18.3333 25.5802C10.6517 25.5802 5.86667 25.2879 3.97833 24.7763C2.32833 24.3195 1.265 23.2598 0.806667 21.6153C0.568333 20.7565 0.403333 19.6054 0.293334 18.1437C0.165 16.682 0.11 15.4212 0.11 14.3249L0 12.7901C0 8.78864 0.293333 5.84691 0.806667 3.96494C1.265 2.32049 2.32833 1.26074 3.97833 0.803951C4.84 0.56642 6.41667 0.401975 8.83667 0.292345C11.22 0.164444 13.4017 0.10963 15.4183 0.10963L18.3333 0C26.015 0 30.8 0.292346 32.6883 0.803951C34.3383 1.26074 35.4017 2.32049 35.86 3.96494Z" fill="#FF3131"/>
</svg>
