<svg width="27" height="27" viewBox="0 0 27 27" fill="none" xmlns="http://www.w3.org/2000/svg">
<path d="M20.6719 0H6.32812C2.8332 0 0 2.8332 0 6.32812V20.6719C0 24.1668 2.8332 27 6.32812 27H20.6719C24.1668 27 27 24.1668 27 20.6719V6.32812C27 2.8332 24.1668 0 20.6719 0Z" fill="url(#paint0_radial_87_2267)"/>
<path d="M20.6719 0H6.32812C2.8332 0 0 2.8332 0 6.32812V20.6719C0 24.1668 2.8332 27 6.32812 27H20.6719C24.1668 27 27 24.1668 27 20.6719V6.32812C27 2.8332 24.1668 0 20.6719 0Z" fill="url(#paint1_radial_87_2267)"/>
<path d="M13.5009 2.95312C10.6366 2.95312 10.2771 2.96568 9.15216 3.01683C8.02934 3.0683 7.26289 3.24601 6.59232 3.50684C5.89855 3.7762 5.31014 4.13659 4.72395 4.723C4.13722 5.3093 3.77684 5.89771 3.50663 6.59116C3.24506 7.26195 3.06714 8.0287 3.01662 9.151C2.96631 10.276 2.95312 10.6357 2.95312 13.5001C2.95312 16.3645 2.96578 16.7229 3.01683 17.8478C3.06851 18.9707 3.24622 19.7371 3.50684 20.4077C3.77641 21.1014 4.1368 21.6899 4.72321 22.2761C5.3093 22.8628 5.89771 23.224 6.59095 23.4934C7.26205 23.7542 8.0286 23.9319 9.15121 23.9834C10.2762 24.0345 10.6355 24.0471 13.4997 24.0471C16.3643 24.0471 16.7227 24.0345 17.8476 23.9834C18.9705 23.9319 19.7377 23.7542 20.4088 23.4934C21.1023 23.224 21.6899 22.8628 22.2758 22.2761C22.8626 21.6899 23.2228 21.1014 23.4932 20.408C23.7524 19.7371 23.9304 18.9705 23.9832 17.8481C24.0337 16.7231 24.0469 16.3645 24.0469 13.5001C24.0469 10.6357 24.0337 10.2762 23.9832 9.15121C23.9304 8.02839 23.7524 7.26205 23.4932 6.59148C23.2228 5.89771 22.8626 5.3093 22.2758 4.723C21.6892 4.13638 21.1025 3.77599 20.4082 3.50694C19.7358 3.24601 18.969 3.06819 17.8462 3.01683C16.7211 2.96568 16.3629 2.95312 13.4977 2.95312H13.5009ZM12.5548 4.85378C12.8357 4.85336 13.149 4.85378 13.5009 4.85378C16.3171 4.85378 16.6508 4.8639 17.7628 4.91442C18.7912 4.96146 19.3493 5.13327 19.7211 5.27766C20.2133 5.46877 20.5642 5.69732 20.9331 6.06656C21.3023 6.4357 21.5307 6.78723 21.7223 7.27945C21.8667 7.6507 22.0388 8.20884 22.0856 9.23716C22.1361 10.349 22.1471 10.6829 22.1471 13.4977C22.1471 16.3124 22.1361 16.6464 22.0856 17.7582C22.0385 18.7865 21.8667 19.3447 21.7223 19.716C21.5312 20.2082 21.3023 20.5587 20.9331 20.9276C20.564 21.2968 20.2135 21.5252 19.7211 21.7164C19.3497 21.8615 18.7912 22.0328 17.7628 22.0799C16.651 22.1304 16.3171 22.1414 13.5009 22.1414C10.6847 22.1414 10.3509 22.1304 9.23917 22.0799C8.21085 22.0324 7.65271 21.8606 7.28061 21.7162C6.7885 21.525 6.43686 21.2966 6.06772 20.9274C5.69858 20.5583 5.47014 20.2076 5.2785 19.7152C5.13411 19.3438 4.96209 18.7857 4.91527 17.7574C4.86475 16.6455 4.85462 16.3116 4.85462 13.495C4.85462 10.6785 4.86475 10.3464 4.91527 9.23453C4.9623 8.20621 5.13411 7.64807 5.2785 7.27629C5.46971 6.78407 5.69858 6.43254 6.06783 6.0634C6.43707 5.69426 6.7885 5.46571 7.28072 5.27418C7.6525 5.12916 8.21085 4.95777 9.23917 4.91052C10.2121 4.86654 10.5892 4.85336 12.5548 4.85114V4.85378ZM19.1309 6.60498C18.4321 6.60498 17.8652 7.17135 17.8652 7.87018C17.8652 8.56891 18.4321 9.13581 19.1309 9.13581C19.8296 9.13581 20.3965 8.56891 20.3965 7.87018C20.3965 7.17145 19.8296 6.60456 19.1309 6.60456V6.60498ZM13.5009 8.08376C10.5099 8.08376 8.08471 10.5089 8.08471 13.5001C8.08471 16.4913 10.5099 18.9153 13.5009 18.9153C16.4921 18.9153 18.9165 16.4913 18.9165 13.5001C18.9165 10.509 16.4919 8.08376 13.5007 8.08376H13.5009ZM13.5009 9.98441C15.4425 9.98441 17.0166 11.5583 17.0166 13.5001C17.0166 15.4417 15.4425 17.0158 13.5009 17.0158C11.5594 17.0158 9.98536 15.4417 9.98536 13.5001C9.98536 11.5583 11.5593 9.98441 13.5009 9.98441Z" fill="white"/>
<defs>
<radialGradient id="paint0_radial_87_2267" cx="0" cy="0" r="1" gradientUnits="userSpaceOnUse" gradientTransform="translate(7.17187 29.0795) rotate(-90) scale(26.759 24.888)">
<stop stop-color="#FFDD55"/>
<stop offset="0.1" stop-color="#FFDD55"/>
<stop offset="0.5" stop-color="#FF543E"/>
<stop offset="1" stop-color="#C837AB"/>
</radialGradient>
<radialGradient id="paint1_radial_87_2267" cx="0" cy="0" r="1" gradientUnits="userSpaceOnUse" gradientTransform="translate(-4.52261 1.94495) rotate(78.681) scale(11.9614 49.3054)">
<stop stop-color="#3771C8"/>
<stop offset="0.128" stop-color="#3771C8"/>
<stop offset="1" stop-color="#6600FF" stop-opacity="0"/>
</radialGradient>
</defs>
</svg>
