<svg width="11" height="14" viewBox="0 0 11 14" fill="none" xmlns="http://www.w3.org/2000/svg">
<path d="M2.14398 1.0775C2.24148 0.7355 2.55423 0.5 2.90973 0.5H6.84723C7.39023 0.5 7.77423 1.0325 7.60248 1.5485L7.60023 1.5545L6.65523 4.25H8.57748C9.28698 4.25 9.63273 5.108 9.15198 5.60825L9.14973 5.61125L8.17623 6.605L8.17398 6.599L8.14848 6.5315L7.91148 5.80325L8.61198 5.0885C8.6186 5.08201 8.62306 5.07362 8.62473 5.0645C8.62548 5.05325 8.62369 5.04197 8.61948 5.0315C8.61512 5.02176 8.60872 5.01307 8.60073 5.006C8.59773 5.0025 8.58998 5.0005 8.57748 5H6.12498C6.06507 4.99992 6.00606 4.9855 5.95287 4.95792C5.89968 4.93035 5.85388 4.89044 5.81929 4.84153C5.7847 4.79262 5.76233 4.73613 5.75405 4.6768C5.74578 4.61746 5.75184 4.55701 5.77173 4.5005L6.89148 1.31C6.8936 1.30301 6.89405 1.29562 6.89278 1.28843C6.89151 1.28123 6.88857 1.27444 6.88418 1.2686C6.8798 1.26275 6.8741 1.25803 6.86755 1.25479C6.861 1.25156 6.85378 1.24992 6.84648 1.25H2.90973C2.89951 1.24968 2.88949 1.25284 2.88131 1.25898C2.87313 1.26511 2.86728 1.27385 2.86473 1.28375L1.17723 7.18925C1.16973 7.21925 1.19148 7.24925 1.22223 7.24925H2.65323C2.71011 7.24929 2.76624 7.26228 2.81736 7.28722C2.86848 7.31216 2.91326 7.3484 2.9483 7.3932C2.98335 7.438 3.00775 7.49019 3.01964 7.54581C3.03154 7.60143 3.03063 7.65903 3.01698 7.71425L2.02323 11.6893C2.02135 11.6966 2.02059 11.7042 2.02098 11.7118C2.02098 11.7147 2.02173 11.7175 2.02323 11.72C2.02573 11.7265 2.03323 11.734 2.04573 11.7425C2.05556 11.7473 2.06631 11.7498 2.07723 11.75L2.08473 11.747C2.09137 11.7434 2.09744 11.7389 2.10273 11.7335L2.10498 11.7305L4.36098 9.428L5.03073 9.6455C5.07173 9.659 5.11123 9.6755 5.14923 9.695L2.64198 12.2548C2.07648 12.8413 1.09773 12.2998 1.29573 11.5077L2.17323 7.9985H1.22223C1.09894 7.99849 0.977325 7.96986 0.866977 7.91486C0.756629 7.85986 0.660556 7.78 0.586323 7.68155C0.512091 7.58311 0.461726 7.46877 0.439194 7.34756C0.416663 7.22634 0.42258 7.10154 0.45648 6.983L2.14398 1.0775ZM7.15848 5.9615L7.41948 6.76475C7.5005 7.00915 7.63759 7.2312 7.81978 7.41313C8.00197 7.59506 8.22422 7.73183 8.46873 7.8125L9.27273 8.0735L9.28848 8.078C9.35043 8.09981 9.40409 8.14031 9.44205 8.19391C9.48 8.24751 9.50039 8.31157 9.50039 8.37725C9.50039 8.44293 9.48 8.50699 9.44205 8.56059C9.40409 8.61419 9.35043 8.65469 9.28848 8.6765L8.48448 8.9375C8.2401 9.01827 8.01801 9.15508 7.83595 9.33701C7.6539 9.51894 7.51692 9.74093 7.43598 9.98525L7.17498 10.7878C7.15333 10.85 7.11285 10.9039 7.05916 10.9421C7.00547 10.9802 6.94123 11.0007 6.87536 11.0007C6.80948 11.0007 6.74524 10.9802 6.69155 10.9421C6.63786 10.9039 6.59738 10.85 6.57573 10.7878L6.31473 9.98525C6.23439 9.7401 6.09768 9.5172 5.91559 9.33446C5.7335 9.15172 5.51109 9.01422 5.26623 8.933L4.46223 8.672C4.40028 8.65019 4.34662 8.60969 4.30866 8.55609C4.27071 8.50249 4.25032 8.43843 4.25032 8.37275C4.25032 8.30707 4.27071 8.24301 4.30866 8.18941C4.34662 8.13581 4.40028 8.09531 4.46223 8.0735L5.26623 7.8125C5.50769 7.72965 5.72664 7.5919 5.90584 7.4101C6.08505 7.22829 6.21962 7.00738 6.29898 6.76475L6.55998 5.96225C6.58179 5.9003 6.62229 5.84664 6.67589 5.80868C6.72949 5.77073 6.79355 5.75034 6.85923 5.75034C6.92491 5.75034 6.98897 5.77073 7.04257 5.80868C7.09617 5.84664 7.13667 5.9003 7.15848 5.96225M10.8372 11.9105L10.2627 11.7245C10.0885 11.6663 9.93016 11.5684 9.80026 11.4385C9.67036 11.3086 9.57244 11.1502 9.51423 10.976L9.32673 10.4023C9.3112 10.3579 9.28229 10.3196 9.244 10.2924C9.20571 10.2653 9.15992 10.2507 9.11298 10.2507C9.06604 10.2507 9.02025 10.2653 8.98196 10.2924C8.94367 10.3196 8.91476 10.3579 8.89923 10.4023L8.71323 10.976C8.65609 11.1491 8.55976 11.3067 8.43176 11.4366C8.30376 11.5664 8.14753 11.6649 7.97523 11.7245L7.40148 11.9105C7.35718 11.926 7.3188 11.9549 7.29164 11.9932C7.26449 12.0315 7.2499 12.0773 7.2499 12.1243C7.2499 12.1712 7.26449 12.217 7.29164 12.2553C7.3188 12.2936 7.35718 12.3225 7.40148 12.338L7.97523 12.5248C8.15007 12.5831 8.30891 12.6813 8.4391 12.8118C8.5693 12.9423 8.66727 13.1013 8.72523 13.2762L8.91123 13.8492C8.92676 13.8936 8.95567 13.9319 8.99396 13.9591C9.03225 13.9862 9.07804 14.0008 9.12498 14.0008C9.17192 14.0008 9.21771 13.9862 9.256 13.9591C9.29429 13.9319 9.3232 13.8936 9.33873 13.8492L9.52548 13.2762C9.58366 13.1018 9.68165 12.9433 9.8117 12.8132C9.94174 12.6832 10.1003 12.5852 10.2747 12.527L10.8485 12.341C10.8928 12.3255 10.9312 12.2966 10.9583 12.2583C10.9855 12.22 11.0001 12.1742 11.0001 12.1273C11.0001 12.0803 10.9855 12.0345 10.9583 11.9962C10.9312 11.9579 10.8928 11.929 10.8485 11.9135L10.8372 11.9105Z" fill="url(#paint0_linear_87_2479)"/>
<defs>
<linearGradient id="paint0_linear_87_2479" x1="5.16952" y1="-74.4469" x2="16.0121" y2="-73.9629" gradientUnits="userSpaceOnUse">
<stop stop-color="#4E43FA"/>
<stop offset="1" stop-color="#9F62CA"/>
</linearGradient>
</defs>
</svg>
