<svg width="23" height="26" viewBox="0 0 23 26" fill="none" xmlns="http://www.w3.org/2000/svg">
<path fill-rule="evenodd" clip-rule="evenodd" d="M3.81203 3.77875C5.74578 1.7175 8.54953 0.5 12.0208 0.5C17.727 0.5 21.5108 3.78875 22.7083 8.34625C22.7925 8.667 22.7458 9.00806 22.5786 9.2944C22.4113 9.58075 22.1372 9.78892 21.8164 9.87313C21.4957 9.95733 21.1546 9.91067 20.8683 9.74341C20.5819 9.57615 20.3737 9.302 20.2895 8.98125C19.3808 5.5275 16.5945 3 12.0195 3C9.16203 3 7.04453 3.98625 5.63703 5.4875C4.21703 7.0025 3.42578 9.14125 3.42578 11.5938V14.4062C3.42578 16.8587 4.21703 18.9975 5.63703 20.5113C7.04453 22.015 9.16203 23 12.0195 23C14.0883 23 15.7295 22.52 16.9895 21.7438C18.2583 20.9625 19.0145 19.9263 19.227 18.7375C19.4708 17.3675 19.1708 16.4275 18.6545 15.7488C18.3714 15.3835 18.0272 15.0702 17.637 14.8225C17.4683 15.7587 17.167 16.6425 16.712 17.335C15.0345 19.8838 11.827 20.1025 9.71203 19.2588C8.56703 18.8025 7.58578 17.5537 7.28078 16.215C7.0956 15.4477 7.15728 14.6415 7.45703 13.9113C7.78828 13.1163 8.40203 12.4388 9.27578 11.9237C10.1408 11.4125 11.4258 11.1775 12.6995 11.1425C13.467 11.1213 14.2995 11.1725 15.137 11.3088C14.962 10.4963 14.6658 9.89 14.332 9.57875C13.727 9.01625 12.7245 8.62 11.7195 8.62625C10.7483 8.63375 9.92453 9.0075 9.43203 9.795C9.25633 10.0761 8.97614 10.2759 8.65311 10.3505C8.33007 10.425 7.99066 10.3682 7.70953 10.1925C7.4284 10.0168 7.22859 9.73661 7.15404 9.41358C7.07949 9.09054 7.13633 8.75113 7.31203 8.47C8.35828 6.7975 10.082 6.13875 11.7033 6.12625C13.2908 6.115 14.9258 6.71625 16.0358 7.74875C17.1583 8.79375 17.6408 10.5075 17.7658 12.0662C18.8583 12.5425 19.8908 13.2413 20.647 14.2375C21.6233 15.525 22.0433 17.185 21.6883 19.1763C21.3258 21.2062 20.0445 22.7987 18.3008 23.8725C16.5908 24.925 14.4808 25.5 12.0195 25.5C8.54953 25.5 5.74453 24.2825 3.81328 22.2213C1.89328 20.1738 0.925781 17.3913 0.925781 14.4062V11.5938C0.925781 8.60875 1.89328 5.82625 3.81328 3.77875H3.81203ZM15.2495 13.875C14.4342 13.6992 13.6008 13.6211 12.767 13.6425C11.6533 13.6725 10.872 13.8837 10.5458 14.0763C10.0658 14.36 9.85828 14.6488 9.76578 14.8725C9.66709 15.1234 9.65046 15.3991 9.71828 15.66C9.87078 16.33 10.3745 16.8325 10.6383 16.9363C12.0458 17.4988 13.807 17.2013 14.6233 15.9613C14.917 15.5138 15.1508 14.7612 15.2483 13.875H15.2495Z" fill="black"/>
</svg>
