<svg width="21" height="21" viewBox="0 0 21 21" fill="none" xmlns="http://www.w3.org/2000/svg">
<g clip-path="url(#clip0_87_3692)">
<path d="M7.31518 0.691181C5.21695 1.41907 3.40745 2.80064 2.15245 4.63295C0.897445 6.46526 0.263103 8.65173 0.342592 10.8712C0.422082 13.0907 1.21121 15.2262 2.59408 16.964C3.97694 18.7018 5.88065 19.9504 8.02557 20.5263C9.76451 20.975 11.5864 20.9947 13.3346 20.5838C14.9184 20.228 16.3826 19.4671 17.5839 18.3755C18.8341 17.2046 19.7417 15.7152 20.2089 14.0672C20.7167 12.2751 20.807 10.3904 20.473 8.55798H10.708V12.6087H16.3632C16.2502 13.2547 16.008 13.8714 15.6511 14.4216C15.2942 14.9719 14.83 15.4445 14.2862 15.8112C13.5956 16.268 12.8172 16.5753 12.0008 16.7135C11.182 16.8658 10.3422 16.8658 9.52346 16.7135C8.69361 16.542 7.90859 16.1994 7.21838 15.7078C6.10956 14.9229 5.27699 13.8079 4.83948 12.5217C4.39456 11.2115 4.39456 9.79108 4.83948 8.48087C5.15091 7.56247 5.66575 6.72628 6.34557 6.0347C7.12354 5.22873 8.10847 4.65263 9.19231 4.36959C10.2761 4.08655 11.417 4.1075 12.4897 4.43016C13.3277 4.6874 14.094 5.13684 14.7275 5.74266C15.3652 5.10829 16.0017 4.47227 16.6372 3.83462C16.9653 3.49173 17.323 3.16524 17.6462 2.81415C16.6792 1.91423 15.544 1.21398 14.3059 0.753524C12.0512 -0.0651641 9.58413 -0.0871656 7.31518 0.691181Z" fill="white"/>
<path d="M7.31586 0.691001C9.58462 -0.0878739 12.0517 -0.0664515 14.3066 0.751705C15.5449 1.21529 16.6795 1.91891 17.6452 2.82217C17.3171 3.17327 16.9709 3.50139 16.6362 3.84264C15.9997 4.47811 15.3637 5.11139 14.7282 5.74249C14.0947 5.13666 13.3284 4.68722 12.4904 4.42999C11.418 4.10619 10.2772 4.08402 9.19309 4.36591C8.10897 4.64779 7.12343 5.22284 6.34461 6.02796C5.66479 6.71954 5.14995 7.55573 4.83852 8.47413L1.4375 5.84092C2.65486 3.42684 4.76264 1.58026 7.31586 0.691001Z" fill="#E33629"/>
<path d="M0.534488 8.44941C0.717288 7.54345 1.02077 6.6661 1.43683 5.84082L4.83785 8.48059C4.39293 9.7908 4.39293 11.2112 4.83785 12.5214C3.70472 13.3964 2.57105 14.2758 1.43683 15.1596C0.395282 13.0863 0.077627 10.7241 0.534488 8.44941Z" fill="#F8BD00"/>
<path d="M10.7087 8.55566H20.4737C20.8078 10.3881 20.7174 12.2728 20.2096 14.0649C19.7424 15.7129 18.8349 17.2023 17.5846 18.3732C16.487 17.5168 15.3845 16.6669 14.2869 15.8105C14.8311 15.4435 15.2955 14.9703 15.6524 14.4195C16.0094 13.8686 16.2514 13.2514 16.364 12.6047H10.7087C10.7071 11.2561 10.7087 9.9059 10.7087 8.55566Z" fill="#587DBD"/>
<path d="M1.43555 15.1596C2.56977 14.2846 3.70344 13.4052 4.83656 12.5215C5.27495 13.8081 6.10871 14.9232 7.21875 15.7076C7.91111 16.1969 8.69782 16.5366 9.52875 16.7051C10.3475 16.8573 11.1873 16.8573 12.0061 16.7051C12.8225 16.5669 13.6009 16.2595 14.2915 15.8027C15.3891 16.6591 16.4916 17.509 17.5891 18.3654C16.388 19.4576 14.9238 20.2191 13.3399 20.5753C11.5917 20.9863 9.7698 20.9666 8.03086 20.5179C6.65553 20.1507 5.37087 19.5033 4.25742 18.6164C3.0789 17.6807 2.11633 16.5016 1.43555 15.1596Z" fill="#319F43"/>
</g>
<defs>
<clipPath id="clip0_87_3692">
<rect width="21" height="21" fill="white"/>
</clipPath>
</defs>
</svg>
