<svg width="35" height="32" viewBox="0 0 35 32" fill="none" xmlns="http://www.w3.org/2000/svg">
<path d="M29.4584 3.33341H26.0417V1.75008C26.0417 1.33016 25.8618 0.927428 25.5414 0.630496C25.221 0.333563 24.7865 0.166748 24.3334 0.166748C23.8803 0.166748 23.4458 0.333563 23.1254 0.630496C22.8051 0.927428 22.6251 1.33016 22.6251 1.75008V3.33341H12.3751V1.75008C12.3751 1.33016 12.1951 0.927428 11.8747 0.630496C11.5543 0.333563 11.1198 0.166748 10.6667 0.166748C10.2137 0.166748 9.77915 0.333563 9.45877 0.630496C9.1384 0.927428 8.95841 1.33016 8.95841 1.75008V3.33341H5.54175C4.18251 3.33341 2.87895 3.83386 1.91783 4.72466C0.956702 5.61546 0.416748 6.82364 0.416748 8.08341V27.0834C0.416748 28.3432 0.956702 29.5514 1.91783 30.4422C2.87895 31.333 4.18251 31.8334 5.54175 31.8334H29.4584C30.8176 31.8334 32.1212 31.333 33.0823 30.4422C34.0435 29.5514 34.5834 28.3432 34.5834 27.0834V8.08341C34.5834 6.82364 34.0435 5.61546 33.0823 4.72466C32.1212 3.83386 30.8176 3.33341 29.4584 3.33341ZM31.1667 27.0834C31.1667 27.5033 30.9868 27.9061 30.6664 28.203C30.346 28.4999 29.9115 28.6667 29.4584 28.6667H5.54175C5.08867 28.6667 4.65415 28.4999 4.33377 28.203C4.0134 27.9061 3.83341 27.5033 3.83341 27.0834V16.0001H31.1667V27.0834ZM31.1667 12.8334H3.83341V8.08341C3.83341 7.66349 4.0134 7.26076 4.33377 6.96383C4.65415 6.6669 5.08867 6.50008 5.54175 6.50008H8.95841V8.08341C8.95841 8.50334 9.1384 8.90607 9.45877 9.203C9.77915 9.49993 10.2137 9.66675 10.6667 9.66675C11.1198 9.66675 11.5543 9.49993 11.8747 9.203C12.1951 8.90607 12.3751 8.50334 12.3751 8.08341V6.50008H22.6251V8.08341C22.6251 8.50334 22.8051 8.90607 23.1254 9.203C23.4458 9.49993 23.8803 9.66675 24.3334 9.66675C24.7865 9.66675 25.221 9.49993 25.5414 9.203C25.8618 8.90607 26.0417 8.50334 26.0417 8.08341V6.50008H29.4584C29.9115 6.50008 30.346 6.6669 30.6664 6.96383C30.9868 7.26076 31.1667 7.66349 31.1667 8.08341V12.8334Z" fill="#464646"
/>
<defs>
<linearGradient id="gradient" x1="16.5986" y1="-188.744" x2="54.4674" y2="-186.395" gradientUnits="userSpaceOnUse">
<stop stop-color="#4E43FA"/>
<stop offset="1" stop-color="#9F62CA"/>
</linearGradient>
</defs>
</svg>
