<svg width="43" height="39" viewBox="0 0 43 39" fill="none" xmlns="http://www.w3.org/2000/svg">
<path d="M7.42899 0.739014L5.26899 2.71593L8.48291 5.66022L10.6398 3.6833L7.42899 0.739014ZM35.6179 0.739014L32.404 3.6833L34.5625 5.66022L37.7748 2.71734L35.6179 0.739014ZM21.5227 1.61639C21.0164 1.62014 20.5051 1.65014 19.9886 1.70638H19.9426C13.7203 2.3602 8.76825 6.96785 7.90763 12.6455C7.22035 17.2152 9.27604 21.3589 12.7017 24.0276C14.1027 25.1238 15.0505 26.6278 15.3863 28.2879V36.7243H18.884C19.4179 37.5637 20.3921 38.1303 21.5227 38.1303C22.6533 38.1303 23.6275 37.5637 24.1613 36.7243H27.659V31.1H27.8032V29.4296C27.8032 27.3683 28.9722 25.2902 30.8714 23.6746C33.4119 21.3434 35.3295 18.0321 35.3295 14.2287C35.3295 7.28281 29.0919 1.55172 21.5227 1.61639ZM21.5227 4.42851C27.4519 4.35258 32.2613 8.80135 32.2613 14.2287C32.2613 17.173 30.7733 19.7658 28.713 21.6527L28.7621 21.6977C26.7155 23.4287 25.3917 25.7598 25.0189 28.2893H18.3088C17.9713 25.8793 16.8437 23.5467 14.7129 21.8735C12.0021 19.7644 10.3867 16.5867 10.9267 12.9984C11.5971 8.56935 15.5183 5.00781 20.323 4.5199C20.7197 4.46948 21.1192 4.43944 21.5196 4.42992L21.5227 4.42851ZM0.0454102 14.2287V17.0409H4.64768V14.2287H0.0454102ZM38.3977 14.2287V17.0409H43V14.2287H38.3977ZM8.48291 25.6094L5.27052 28.5522L7.42899 30.5306L10.6383 27.5863L8.48291 25.6094ZM34.5625 25.6094L32.4055 27.5863L35.6164 30.5306L37.7748 28.5522L34.5625 25.6094ZM18.4545 31.1014H24.5909V33.9135H18.4545V31.1014Z" fill="#464646"
/>
<defs>
<linearGradient id="gradient" x1="16.5986" y1="-188.744" x2="54.4674" y2="-186.395" gradientUnits="userSpaceOnUse">
<stop stop-color="#4E43FA"/>
<stop offset="1" stop-color="#9F62CA"/>
</linearGradient>
</defs>
</svg>
