<svg width="39" height="36" viewBox="0 0 39 36" fill="none" xmlns="http://www.w3.org/2000/svg">
  <defs>
    <clipPath id="clip0_85_397">
      <rect width="39" height="36" fill="white"/>
    </clipPath>
    <linearGradient id="gradient" x1="16.5986" y1="-188.744" x2="54.4674" y2="-186.395" gradientUnits="userSpaceOnUse">
      <stop stop-color="#4E43FA"/>
      <stop offset="1" stop-color="#9F62CA"/>
    </linearGradient>
  </defs>
  <g clip-path="url(#clip0_85_397)">
    <path fill-rule="evenodd" clip-rule="evenodd" d="M17.0625 19.125C17.0628 18.2296 17.4485 17.371 18.1346 16.738C18.4744 16.4247 18.8776 16.1761 19.3214 16.0066C19.7652 15.837 20.2409 15.7499 20.7212 15.75C21.2015 15.7501 21.6771 15.8376 22.1207 16.0074C22.5644 16.1772 22.9675 16.426 23.3071 16.7396C23.6466 17.0532 23.9158 17.4255 24.0995 17.8352C24.2832 18.2448 24.3776 18.6839 24.3774 19.1273C24.3771 20.0227 23.9915 20.8813 23.3053 21.5142C22.6192 22.1471 21.6888 22.5025 20.7188 22.5023C19.7487 22.502 18.8186 22.146 18.1329 21.5126C17.4472 20.8793 17.0622 20.0204 17.0625 19.125ZM20.7188 18C20.3955 18 20.0855 18.1185 19.857 18.3295C19.6284 18.5405 19.5 18.8266 19.5 19.125C19.5 19.4234 19.6284 19.7095 19.857 19.9205C20.0855 20.1315 20.3955 20.25 20.7188 20.25C21.042 20.25 21.352 20.1315 21.5805 19.9205C21.8091 19.7095 21.9375 19.4234 21.9375 19.125C21.9375 18.8266 21.8091 18.5405 21.5805 18.3295C21.352 18.1185 21.042 18 20.7188 18Z" fill="#464646"/>
    <path fill-rule="evenodd" clip-rule="evenodd" d="M12.1875 30.375V22.5H6.09375C4.47759 22.5 2.92762 21.9074 1.78482 20.8525C0.642018 19.7976 0 18.3668 0 16.875L0 5.625C0 4.13316 0.642018 2.70242 1.78482 1.64752C2.92762 0.592632 4.47759 0 6.09375 0L23.1562 0C23.9565 0 24.7489 0.145495 25.4882 0.428178C26.2276 0.71086 26.8993 1.12519 27.4652 1.64752C28.031 2.16985 28.4799 2.78995 28.7861 3.47241C29.0924 4.15486 29.25 4.88631 29.25 5.625V11.25H32.9062C34.5224 11.25 36.0724 11.8426 37.2152 12.8975C38.358 13.9524 39 15.3832 39 16.875V30.375C39 31.8668 38.358 33.2976 37.2152 34.3525C36.0724 35.4074 34.5224 36 32.9062 36H18.2812C16.6651 36 15.1151 35.4074 13.9723 34.3525C12.8295 33.2976 12.1875 31.8668 12.1875 30.375ZM2.4375 5.625C2.4375 4.72989 2.82271 3.87145 3.50839 3.23851C4.19407 2.60558 5.12405 2.25 6.09375 2.25H7.3125V6.75H2.4375V5.625ZM2.4375 9H7.3125V13.5H2.4375V9ZM2.4375 15.75H7.3125V20.25H6.09375C5.12405 20.25 4.19407 19.8944 3.50839 19.2615C2.82271 18.6286 2.4375 17.7701 2.4375 16.875V15.75ZM9.75 20.25V2.25H19.5V11.25H18.2812C16.6651 11.25 15.1151 11.8426 13.9723 12.8975C12.8295 13.9524 12.1875 15.3832 12.1875 16.875V20.25H9.75ZM26.8125 11.25V9H21.9375V11.25H26.8125ZM26.8125 5.625V6.75H21.9375V2.25H23.1562C24.1259 2.25 25.0559 2.60558 25.7416 3.23851C26.4273 3.87145 26.8125 4.72989 26.8125 5.625ZM18.2812 13.5C17.3116 13.5 16.3816 13.8556 15.6959 14.4885C15.0102 15.1214 14.625 15.9799 14.625 16.875V30.375C14.625 31.4753 15.1954 32.4517 16.0778 33.075L29.6059 20.5875C29.8344 20.3766 30.1444 20.2581 30.4675 20.2581C30.7907 20.2581 31.1006 20.3766 31.3292 20.5875L36.5698 25.425V16.8975C36.5698 16.0024 36.1846 15.1439 35.4989 14.511C34.8132 13.8781 33.8833 13.5225 32.9136 13.5225H18.2886L18.2812 13.5ZM36.5625 28.5975L30.4688 22.9725L18.7931 33.75H32.9062C33.8759 33.75 34.8059 33.3944 35.4916 32.7615C36.1773 32.1286 36.5625 31.2701 36.5625 30.375V28.5907V28.5975Z" fill="#464646"/>
  </g>
</svg>
